<svg width="16" height="16" viewBox="0 0 16 16" fill="none" xmlns="http://www.w3.org/2000/svg">
<path fill-rule="evenodd" clip-rule="evenodd" d="M7.04996 2.03098C7.88106 1.85022 8.66667 2.48332 8.66667 3.33386V12.666C8.66667 13.5166 7.88106 14.1497 7.04996 13.9689L3.04996 13.0989C2.4371 12.9656 2 12.4232 2 11.796V4.20386C2 3.57667 2.43711 3.03428 3.04996 2.90098L7.04996 2.03098ZM7.33333 3.33386L3.33333 4.20386V11.796L7.33333 12.666V3.33386ZM10.6667 2.6666C11.0349 2.6666 11.3333 2.96508 11.3333 3.33327V12.6666C11.3333 13.0348 11.0349 13.3333 10.6667 13.3333C10.2985 13.3333 10 13.0348 10 12.6666V3.33327C10 2.96508 10.2985 2.6666 10.6667 2.6666ZM13.3333 3.33327C13.7015 3.33327 14 3.63175 14 3.99994V11.9999C14 12.3681 13.7015 12.6666 13.3333 12.6666C12.9651 12.6666 12.6667 12.3681 12.6667 11.9999V3.99994C12.6667 3.63175 12.9651 3.33327 13.3333 3.33327Z" fill="#696963"/>
</svg>
